<svg width="25" height="25" viewBox="0 0 25 25" fill="none" xmlns="http://www.w3.org/2000/svg">
<path d="M10.2024 0.938232C12.0161 0.93816 13.7938 1.44364 15.3347 2.39763C16.8756 3.35161 18.1186 4.71613 18.9232 6.3372C19.7278 7.95826 20.0621 9.77135 19.8884 11.5718C19.7147 13.3723 19.0398 15.0886 17.94 16.5269L24.0934 22.6663C24.3261 22.8992 24.4612 23.2116 24.4713 23.5402C24.4813 23.8688 24.3656 24.1888 24.1476 24.4354C23.9296 24.682 23.6257 24.8365 23.2975 24.8677C22.9694 24.8989 22.6417 24.8043 22.3809 24.6032L22.2589 24.4959L16.1029 18.359C14.8743 19.2933 13.4402 19.9224 11.9194 20.1942C10.3986 20.466 8.83479 20.3728 7.35731 19.9221C5.87982 19.4715 4.53117 18.6764 3.42296 17.6028C2.31475 16.5291 1.47883 15.2077 0.984383 13.7479C0.489933 12.288 0.351164 10.7317 0.57956 9.2078C0.807955 7.68386 1.39695 6.23607 2.2978 4.98422C3.19865 3.73238 4.38547 2.71247 5.76004 2.0089C7.1346 1.30533 8.65741 0.938314 10.2024 0.938232ZM10.2024 3.52599C8.30998 3.52599 6.49502 4.27574 5.15685 5.61031C3.81867 6.94488 3.06689 8.75494 3.06689 10.6423C3.06689 12.5297 3.81867 14.3397 5.15685 15.6743C6.49502 17.0089 8.30998 17.7586 10.2024 17.7586C12.0949 17.7586 13.9099 17.0089 15.248 15.6743C16.5862 14.3397 17.338 12.5297 17.338 10.6423C17.338 8.75494 16.5862 6.94488 15.248 5.61031C13.9099 4.27574 12.0949 3.52599 10.2024 3.52599Z" fill="white"/>
</svg>
