<svg width="18" height="4" viewBox="0 0 18 4" fill="none" xmlns="http://www.w3.org/2000/svg">
<path d="M1.95833 1.95833H1.96792H1.95833ZM8.66667 1.95833H8.67625H8.66667ZM15.375 1.95833H15.3846H15.375ZM2.91667 1.95833C2.91667 2.2125 2.8157 2.45626 2.63598 2.63598C2.45625 2.8157 2.2125 2.91667 1.95833 2.91667C1.70417 2.91667 1.46041 2.8157 1.28069 2.63598C1.10097 2.45626 1 2.2125 1 1.95833C1 1.70417 1.10097 1.46041 1.28069 1.28069C1.46041 1.10097 1.70417 1 1.95833 1C2.2125 1 2.45625 1.10097 2.63598 1.28069C2.8157 1.46041 2.91667 1.70417 2.91667 1.95833V1.95833ZM9.625 1.95833C9.625 2.2125 9.52403 2.45626 9.34431 2.63598C9.16459 2.8157 8.92083 2.91667 8.66667 2.91667C8.4125 2.91667 8.16875 2.8157 7.98902 2.63598C7.8093 2.45626 7.70833 2.2125 7.70833 1.95833C7.70833 1.70417 7.8093 1.46041 7.98902 1.28069C8.16875 1.10097 8.4125 1 8.66667 1C8.92083 1 9.16459 1.10097 9.34431 1.28069C9.52403 1.46041 9.625 1.70417 9.625 1.95833V1.95833ZM16.3333 1.95833C16.3333 2.2125 16.2324 2.45626 16.0526 2.63598C15.8729 2.8157 15.6292 2.91667 15.375 2.91667C15.1208 2.91667 14.8771 2.8157 14.6974 2.63598C14.5176 2.45626 14.4167 2.2125 14.4167 1.95833C14.4167 1.70417 14.5176 1.46041 14.6974 1.28069C14.8771 1.10097 15.1208 1 15.375 1C15.6292 1 15.8729 1.10097 16.0526 1.28069C16.2324 1.46041 16.3333 1.70417 16.3333 1.95833V1.95833Z" stroke="#C7C7C7" stroke-width="2" stroke-linecap="round" stroke-linejoin="round"/>
</svg>
