<svg width="18" height="18" viewBox="0 0 18 18" fill="none" xmlns="http://www.w3.org/2000/svg">
<path d="M9 0C4.03748 0 0 4.03748 0 9C0 13.9625 4.03748 18 9 18C13.9625 18 18 13.9625 18 9C18 4.03748 13.9625 0 9 0ZM9 16.5C4.86439 16.5 1.50001 13.1356 1.50001 9C1.50001 4.86439 4.86439 1.50001 9 1.50001C13.1356 1.50001 16.5 4.86439 16.5 9C16.5 13.1356 13.1356 16.5 9 16.5Z" fill="#FFB800"/>
<path d="M13.3399 4.15637L7.33224 7.16406C7.25971 7.2003 7.20075 7.25926 7.16451 7.33179L4.15682 13.3395C4.08468 13.4837 4.11287 13.6581 4.22713 13.7723C4.29927 13.8445 4.39521 13.8822 4.49228 13.8822C4.54941 13.8822 4.60689 13.8694 4.66001 13.8427L10.6677 10.835C10.7402 10.7987 10.7992 10.7398 10.8354 10.6672L13.8431 4.65956C13.9152 4.51528 13.887 4.34094 13.7728 4.22668C13.6589 4.11242 13.4835 4.08458 13.3399 4.15637ZM8.99994 9.74948C8.58651 9.74948 8.24996 9.41293 8.24996 8.9995C8.24996 8.58606 8.58651 8.24951 8.99994 8.24951C9.41338 8.24951 9.74993 8.58606 9.74993 8.9995C9.74993 9.41293 9.41338 9.74948 8.99994 9.74948Z" fill="#FFB800"/>
</svg>
