<svg width="14" height="16" viewBox="0 0 14 16" fill="none" xmlns="http://www.w3.org/2000/svg">
<path d="M13.3474 5.43108L6.96821 0.110777C6.88089 0.0380656 6.77342 -0.000941353 6.66305 1.72556e-05C6.55268 0.000975864 6.4458 0.0418446 6.35958 0.116063L0.184356 5.43615C0.126847 5.48584 0.0804272 5.54879 0.04852 5.62037C0.0166128 5.69195 3.19222e-05 5.77033 3.92227e-08 5.84973V15.4703C-2.57618e-05 15.5399 0.0126778 15.6088 0.0373845 15.6731C0.0620912 15.7373 0.0983166 15.7957 0.143991 15.8449C0.189665 15.8941 0.243892 15.9331 0.303573 15.9597C0.363254 15.9863 0.427218 16 0.491811 16H4.16263C4.29305 15.9999 4.41811 15.9441 4.51034 15.8448C4.60256 15.7455 4.65439 15.6108 4.65444 15.4703V9.57978H8.88343V15.4703C8.88343 15.6108 8.93525 15.7455 9.02748 15.8449C9.11971 15.9442 9.24481 16 9.37524 16H13.0466C13.1771 15.9999 13.3021 15.9441 13.3944 15.8448C13.4866 15.7455 13.5384 15.6108 13.5385 15.4703V5.84973C13.5385 5.76886 13.5213 5.68905 13.4882 5.61646C13.4551 5.54388 13.4069 5.48045 13.3474 5.43108Z" fill="white"/>
</svg>
