<svg width="408" height="943" viewBox="0 0 408 943" fill="none" xmlns="http://www.w3.org/2000/svg">
<mask id="mask0" style="mask-type:alpha" maskUnits="userSpaceOnUse" x="-492" y="121" width="851" height="776">
<path d="M305.008 693.86C313.457 697.36 321.222 693.042 325.825 681.976C330.394 670.992 327.836 662.553 319.42 659.067C310.989 655.575 303.268 659.737 298.692 670.738C294.087 681.764 296.551 690.338 305.008 693.86ZM307.448 687.971C303.593 686.374 302.703 681.47 305.927 673.734C309.102 666.113 313.17 663.301 317.008 664.891C320.83 666.474 321.734 671.345 318.574 678.973C315.383 686.723 311.286 689.561 307.448 687.971ZM336.173 706.442C343.719 709.568 350.835 707.653 353.197 701.905C354.946 697.729 353.525 693.642 348.845 690.974L348.954 690.711C352.989 691.595 356.682 690.011 358.228 686.231C360.439 680.939 357.523 674.85 350.568 671.969C343.678 669.115 336.823 671.003 334.319 676.769L341.126 679.589C342.269 677.064 345.301 676.379 348.204 677.582C351.075 678.771 352.274 681.305 351.211 683.824C350.133 686.472 347.145 687.329 343.914 685.991L340.781 684.693L338.62 689.909L341.753 691.207C345.559 692.783 347.149 695.672 346.012 698.371C344.921 701.052 341.863 701.938 338.615 700.593C335.482 699.295 333.815 696.683 334.703 694.168L327.551 691.205C325.234 697.126 328.791 703.385 336.173 706.442Z" fill="white" fill-opacity="0.5"/>
<path d="M200.157 840.009C206.623 846.475 215.449 845.458 223.937 836.996C232.361 828.596 233.227 819.82 226.787 813.379C220.333 806.926 211.607 807.817 203.17 816.229C194.696 824.654 193.691 833.518 200.157 840.009ZM204.664 835.501C201.714 832.551 202.769 827.68 208.707 821.766C214.558 815.941 219.392 814.898 222.33 817.836C225.255 820.762 224.225 825.608 218.387 831.446C212.474 837.385 207.602 838.439 204.664 835.501ZM219.112 848.794L231.454 861.136L226.934 865.656L232.132 870.854L236.652 866.334L239.841 869.523L244.198 865.166L241.008 861.977L257.845 845.141L251.04 838.336L223.394 844.513L219.112 848.794ZM235.911 856.88L228.943 849.912L229.144 849.711L246.621 845.768L246.822 845.969L235.911 856.88Z" fill="white" fill-opacity="0.2"/>
<path d="M319.83 348.559C328.278 345.06 330.716 336.516 326.146 325.437C321.61 314.439 313.833 310.28 305.418 313.766C296.986 317.259 294.47 325.661 299.013 336.675C303.553 347.729 311.358 352.049 319.83 348.559ZM317.39 342.67C313.535 344.267 309.438 341.428 306.248 333.679C303.104 326.044 303.991 321.179 307.83 319.589C311.652 318.006 315.736 320.812 318.895 328.44C322.119 336.176 321.229 341.08 317.39 342.67ZM338.855 300.454L332.179 303.219L326.043 311.93L328.652 318.229L334.348 310.22L334.545 310.138L345.668 336.992L352.771 334.05L338.855 300.454Z" fill="white" fill-opacity="0.5"/>
<path d="M227.591 198.033C234.057 191.567 233.04 182.741 224.578 174.254C216.178 165.829 207.402 164.963 200.961 171.404C194.508 177.857 195.399 186.583 203.811 195.02C212.236 203.495 221.1 204.499 227.591 198.033ZM223.083 193.526C220.133 196.476 215.262 195.422 209.348 189.483C203.523 183.633 202.48 178.799 205.418 175.861C208.344 172.936 213.19 173.965 219.028 179.803C224.967 185.717 226.021 190.588 223.083 193.526ZM224.524 147.841C218.749 153.566 218.636 161.212 223.834 166.36C228.642 171.143 235.447 171.294 240.005 166.736C242.83 163.911 243.972 160.032 242.855 156.63L243.03 156.454C248.115 161.564 249.446 166.435 246.094 169.787C244.123 171.758 241.624 172.097 239.339 170.641L233.978 176.002C238.812 179.831 245.604 179.593 250.752 174.445C257.117 168.08 256.075 158.827 247.337 150.113C238.008 140.81 229.835 142.58 224.524 147.841ZM228.831 152.072C231.329 149.574 235.209 149.762 237.682 152.185C240.155 154.633 240.243 158.613 237.757 161.099C235.246 163.61 231.492 163.447 228.956 160.936C226.42 158.45 226.307 154.596 228.831 152.072Z" fill="white" fill-opacity="0.2"/>
<path fill-rule="evenodd" clip-rule="evenodd" d="M280 508.918C280 459.471 270.666 412.204 253.664 368.783C250.429 369.144 247.213 367.355 245.905 364.197C244.596 361.036 245.608 357.493 248.156 355.462C229.829 313.404 204.199 275.26 172.867 242.632C170.083 243.949 166.657 243.456 164.355 241.154C162.045 238.845 161.557 235.404 162.89 232.615C93.6925 165.637 -0.590261 124.418 -104.5 124.418C-316.854 124.418 -489 296.565 -489 508.918C-489 721.272 -316.854 893.418 -104.5 893.418C-0.622685 893.418 93.6337 852.225 162.825 785.284C161.508 782.5 162.001 779.074 164.303 776.772C166.599 774.477 170.012 773.98 172.791 775.283C204.283 742.508 230.02 704.161 248.376 661.868C245.641 659.876 244.518 656.204 245.87 652.939C247.218 649.686 250.59 647.885 253.922 648.392C270.761 605.152 280 558.114 280 508.918ZM256.74 649.427C273.696 605.864 283 558.478 283 508.918C283 459.149 273.617 411.571 256.524 367.857C259.783 366.021 261.231 361.999 259.763 358.457C258.297 354.917 254.434 353.097 250.835 354.097C232.419 311.889 206.702 273.596 175.281 240.815C177.886 237.869 177.78 233.366 174.962 230.548C172.15 227.736 167.662 227.623 164.716 230.209C95.0033 162.855 0.0906791 121.418 -104.5 121.418C-318.51 121.418 -492 294.908 -492 508.918C-492 722.928 -318.51 896.418 -104.5 896.418C0.0538736 896.418 94.9365 855.01 164.643 787.699C167.588 790.304 172.091 790.197 174.91 787.379C177.734 784.555 177.835 780.038 175.212 777.093C206.819 744.135 232.658 705.602 251.105 663.117C254.616 663.935 258.304 662.119 259.728 658.679C261.157 655.229 259.821 651.324 256.74 649.427Z" fill="white" fill-opacity="0.5"/>
</mask>
<g mask="url(#mask0)">
<rect x="25" y="80.5218" width="366" height="871" fill="url(#paint0_linear)"/>
</g>
<defs>
<linearGradient id="paint0_linear" x1="276.797" y1="489.612" x2="71.782" y2="489.612" gradientUnits="userSpaceOnUse">
<stop stop-color="#C4C4C4"/>
<stop offset="1" stop-color="#C4C4C4" stop-opacity="0"/>
</linearGradient>
</defs>
</svg>
