<svg id="Layer_1" data-name="Layer 1" xmlns="http://www.w3.org/2000/svg" viewBox="0 0 504.67 214.98"><defs><style>.cls-1{fill:none;stroke:#ffc552;stroke-linecap:round;stroke-linejoin:round;stroke-width:5px;}</style></defs><path class="cls-1" d="M145.83,125.39h412.5c58,0,58,100,0,100H145.65c-58,0-58,110,0,110H524.39s24.22-.29,30.05-23.22a31.5,31.5,0,0,0-.13-16.44c-2.42-8.42-9.21-20.67-28.29-22.94a27.5,27.5,0,0,0-3.28-.17H174.39s-18.26-.43-27.42,14.79a31.32,31.32,0,0,0-3.44,22.25c2.2,11.14,9.33,21.83,26.36,25.14" transform="translate(-99.65 -122.89)"/></svg>