<svg width="19" height="15" viewBox="0 0 19 15" fill="none" xmlns="http://www.w3.org/2000/svg">
<path d="M0.000113321 6.26428C-0.00811944 6.97972 0.432903 7.62361 1.10297 7.87448V4.80851C1.10297 4.76439 1.125 4.69823 1.125 4.65411C0.450424 4.90295 0.00175987 5.5452 0.000113321 6.26428Z" fill="#FFB800"/>
<path d="M6.02172 10.059H3.13219L4.213 13.9852C4.37306 14.5844 4.91625 15.0009 5.53645 14.9999C5.97773 15.0051 6.39523 14.8005 6.66138 14.4485C6.93011 14.1136 7.01299 13.6663 6.88194 13.2574L6.02172 10.059Z" fill="#FFB800"/>
<path d="M1.12519 4.63237H1.14745V4.61011C1.14745 4.63237 1.14745 4.63237 1.12519 4.63237Z" fill="#FFB800"/>
<path d="M16.9403 4.32339H16.7638V8.29374H16.9403C18.0367 8.29374 18.9254 7.40494 18.9254 6.30859C18.9254 5.21219 18.0366 4.32339 16.9403 4.32339Z" fill="#FFB800"/>
<path d="M1.76463 4.80814V7.94031C1.78848 8.75142 2.4531 9.39645 3.26451 9.39611H7.27898V3.44058H3.26451C2.47045 3.44058 1.76463 4.01408 1.76463 4.80814Z" fill="#FFB800"/>
<path d="M7.94066 9.48469L16.1019 12.7492V0L7.94066 3.26452V9.48469Z" fill="#FFB800"/>
</svg>
