<svg id="Layer_1" data-name="Layer 1" xmlns="http://www.w3.org/2000/svg" xmlns:xlink="http://www.w3.org/1999/xlink" viewBox="0 0 475.15 214.25"><defs><style>.cls-1{fill:url(#linear-gradient);}</style><linearGradient id="linear-gradient" x1="118.51" y1="343.32" x2="593.66" y2="343.32" gradientUnits="userSpaceOnUse"><stop offset="0" stop-color="#ffb856"/><stop offset="0.36" stop-color="#ffa356"/><stop offset="0.71" stop-color="#ff8056"/><stop offset="1" stop-color="#ff5858"/></linearGradient></defs><path class="cls-1" d="M582.27,252.79c-8.4-10.86-20.37-16.6-34.61-16.6h-410a2.5,2.5,0,0,0,0,5h410c28.17,0,41,24.63,41,47.5,0,12.55-3.67,24.22-10.35,32.85a37.51,37.51,0,0,1-30.65,14.89H163.56l-.33,0c-13.67.37-25.18,6.55-33.32,18-7.35,10.32-11.4,24.16-11.4,39s4,28.67,11.4,39c7.14,10,16.87,16,28.39,17.59l.77.11.28,0a34.16,34.16,0,0,0,4.31.28h350a33.75,33.75,0,0,0,0-67.5h-350a33.73,33.73,0,0,0-32.87,41.39c-4.91-9.17-7.28-20.24-7.28-30.9,0-13.62,3.68-26.29,10.35-35.66,7.42-10.41,18-16.31,30.65-16.31v0H547.87a42.37,42.37,0,0,0,34.4-16.82c7.34-9.51,11.39-22.26,11.39-35.91S589.61,262.29,582.27,252.79ZM163.66,387.94h350a28.75,28.75,0,0,1,0,57.5h-5.75l-.28,0H164.51a39.41,39.41,0,0,1-6.65-.56,28.75,28.75,0,0,1,5.8-56.91Z" transform="translate(-118.51 -236.19)"/></svg>