<svg id="Layer_1" data-name="Layer 1" xmlns="http://www.w3.org/2000/svg" xmlns:xlink="http://www.w3.org/1999/xlink" viewBox="0 0 475.15 214.25"><defs><style>.cls-1{fill:url(#linear-gradient);}.cls-2{fill:#ffc552;}.cls-3{fill:url(#linear-gradient-2);}.cls-4{fill:url(#linear-gradient-3);}.cls-5{fill:url(#linear-gradient-4);}.cls-6{fill:url(#linear-gradient-5);}</style><linearGradient id="linear-gradient" x1="-625.23" y1="844.31" x2="101.02" y2="844.31" gradientTransform="translate(21 1083) rotate(180)" gradientUnits="userSpaceOnUse"><stop offset="0" stop-color="#ffd951"/><stop offset="0.69" stop-color="#ff8056"/><stop offset="1" stop-color="#ff5858"/></linearGradient><linearGradient id="linear-gradient-2" x1="-619.2" y1="844.08" x2="61.46" y2="844.08" gradientTransform="translate(21 1183) rotate(180)" xlink:href="#linear-gradient"/><linearGradient id="linear-gradient-3" x1="-603.98" y1="642.21" x2="4.51" y2="642.21" gradientTransform="translate(685.5 -194.28)" gradientUnits="userSpaceOnUse"><stop offset="0" stop-color="#ff8056"/><stop offset="0.69" stop-color="#ff8056"/><stop offset="1" stop-color="#ff5858"/></linearGradient><linearGradient id="linear-gradient-4" x1="118.51" y1="393.43" x2="164.51" y2="393.43" gradientUnits="userSpaceOnUse"><stop offset="0.33" stop-color="#ff8456"/><stop offset="0.69" stop-color="#ff8056"/></linearGradient><linearGradient id="linear-gradient-5" x1="129.91" y1="416.69" x2="547.41" y2="416.69" gradientUnits="userSpaceOnUse"><stop offset="0" stop-color="#ff8056"/><stop offset="0.4" stop-color="#ff8056"/><stop offset="0.61" stop-color="#ff5a58"/><stop offset="1" stop-color="#ff5858"/></linearGradient></defs><path class="cls-1" d="M547.66,236.19h-410a2.5,2.5,0,0,0-2.5,2.5h0a2.5,2.5,0,0,0,2.5,2.5h410a2.5,2.5,0,0,0,2.5-2.5h0A2.5,2.5,0,0,0,547.66,236.19Z" transform="translate(-118.51 -236.19)"/><path class="cls-2" d="M547.66,341.43v-5a37.51,37.51,0,0,0,30.65-14.89c6.68-8.63,10.35-20.3,10.35-32.85,0-22.87-12.83-47.5-41-47.5v-5c14.24,0,26.21,5.74,34.61,16.6,7.34,9.5,11.39,22.25,11.39,35.9s-4,26.4-11.39,35.91C573.87,335.46,561.9,341.43,547.66,341.43Z" transform="translate(-118.51 -236.19)"/><path class="cls-3" d="M547.82,336.43H163.56a2.42,2.42,0,0,0-2.34,2.5h0a2.43,2.43,0,0,0,2.34,2.5H547.82a2.43,2.43,0,0,0,2.34-2.5h0A2.42,2.42,0,0,0,547.82,336.43Z" transform="translate(-118.51 -236.19)"/><path class="cls-4" d="M164.11,450.44H507.63a2.33,2.33,0,0,0,2.09-2.51h0a2.34,2.34,0,0,0-2.09-2.52H164.11a2.34,2.34,0,0,0-2.1,2.52h0A2.33,2.33,0,0,0,164.11,450.44Z" transform="translate(-118.51 -236.19)"/><path class="cls-5" d="M164.51,336.43v5c-12.63,0-23.23,5.9-30.65,16.31-6.67,9.37-10.35,22-10.35,35.66,0,24.85,12.83,52,41,52v5c-14.24,0-26.21-6.23-34.6-18-7.35-10.32-11.4-24.16-11.4-39s4-28.66,11.4-39C138.3,342.66,150.27,336.43,164.51,336.43Z" transform="translate(-118.51 -236.19)"/><path class="cls-6" d="M513.66,450.44h-350a33.75,33.75,0,0,1,0-67.5h350a33.75,33.75,0,0,1,0,67.5Zm-350-62.5a28.75,28.75,0,0,0,0,57.5h350a28.75,28.75,0,0,0,0-57.5Z" transform="translate(-118.51 -236.19)"/></svg>