<svg width="13" height="13" viewBox="0 0 13 13" fill="none" xmlns="http://www.w3.org/2000/svg">
<g clip-path="url(#clip0)">
<path d="M12.5697 6.36188C12.0919 5.12592 11.2624 4.05707 10.1837 3.28741C9.10503 2.51776 7.82448 2.08105 6.50031 2.03125C5.17615 2.08105 3.8956 2.51776 2.81693 3.28741C1.73826 4.05707 0.908755 5.12592 0.43094 6.36188C0.398671 6.45114 0.398671 6.54887 0.43094 6.63813C0.908755 7.87409 1.73826 8.94294 2.81693 9.7126C3.8956 10.4823 5.17615 10.919 6.50031 10.9688C7.82448 10.919 9.10503 10.4823 10.1837 9.7126C11.2624 8.94294 12.0919 7.87409 12.5697 6.63813C12.602 6.54887 12.602 6.45114 12.5697 6.36188ZM6.50031 10.1563C4.34719 10.1563 2.07219 8.55969 1.2475 6.5C2.07219 4.44032 4.34719 2.84375 6.50031 2.84375C8.65343 2.84375 10.9284 4.44032 11.7531 6.5C10.9284 8.55969 8.65343 10.1563 6.50031 10.1563Z" fill="white"/>
<path d="M6.5 4.0625C6.01791 4.0625 5.54664 4.20546 5.1458 4.47329C4.74495 4.74113 4.43253 5.12182 4.24804 5.56721C4.06356 6.01261 4.01529 6.50271 4.10934 6.97554C4.20339 7.44837 4.43554 7.88269 4.77643 8.22358C5.11732 8.56447 5.55164 8.79662 6.02447 8.89067C6.4973 8.98472 6.9874 8.93645 7.43279 8.75196C7.87818 8.56747 8.25887 8.25505 8.52671 7.85421C8.79454 7.45336 8.9375 6.9821 8.9375 6.5C8.9375 5.85354 8.68069 5.23355 8.22357 4.77643C7.76645 4.31931 7.14646 4.0625 6.5 4.0625ZM6.5 8.12501C6.17861 8.12501 5.86443 8.0297 5.5972 7.85114C5.32997 7.67259 5.12169 7.41879 4.9987 7.12186C4.8757 6.82493 4.84352 6.4982 4.90622 6.18298C4.96893 5.86776 5.12369 5.57821 5.35095 5.35095C5.57821 5.12369 5.86776 4.96893 6.18298 4.90622C6.4982 4.84352 6.82493 4.8757 7.12186 4.9987C7.41879 5.12169 7.67258 5.32997 7.85114 5.5972C8.02969 5.86443 8.125 6.17861 8.125 6.5C8.125 6.93098 7.95379 7.34431 7.64905 7.64905C7.3443 7.9538 6.93098 8.12501 6.5 8.12501Z" fill="white"/>
</g>
<defs>
<clipPath id="clip0">
<rect width="13" height="13" fill="white"/>
</clipPath>
</defs>
</svg>
