<svg width="13" height="13" viewBox="0 0 13 13" fill="none" xmlns="http://www.w3.org/2000/svg">
<path d="M6.49375 0.25C3.04375 0.25 0.25 3.05 0.25 6.5C0.25 9.95 3.04375 12.75 6.49375 12.75C9.95 12.75 12.75 9.95 12.75 6.5C12.75 3.05 9.95 0.25 6.49375 0.25ZM6.5 11.5C3.7375 11.5 1.5 9.2625 1.5 6.5C1.5 3.7375 3.7375 1.5 6.5 1.5C9.2625 1.5 11.5 3.7375 11.5 6.5C11.5 9.2625 9.2625 11.5 6.5 11.5ZM6.3625 3.375H6.325C6.075 3.375 5.875 3.575 5.875 3.825V6.775C5.875 6.99375 5.9875 7.2 6.18125 7.3125L8.775 8.86875C8.9875 8.99375 9.2625 8.93125 9.3875 8.71875C9.41889 8.66814 9.43976 8.61174 9.44889 8.55289C9.45802 8.49405 9.45521 8.43397 9.44063 8.37623C9.42605 8.3185 9.4 8.26428 9.36403 8.21683C9.32805 8.16937 9.2829 8.12964 9.23125 8.1L6.8125 6.6625V3.825C6.8125 3.575 6.6125 3.375 6.3625 3.375Z" fill="#393939" fill-opacity="0.5"/>
</svg>
