<svg width="11" height="11" viewBox="0 0 11 11" fill="none" xmlns="http://www.w3.org/2000/svg">
<path d="M5.49475 0.083252C2.50475 0.083252 0.0834961 2.50992 0.0834961 5.49992C0.0834961 8.48992 2.50475 10.9166 5.49475 10.9166C8.49016 10.9166 10.9168 8.48992 10.9168 5.49992C10.9168 2.50992 8.49016 0.083252 5.49475 0.083252ZM5.50016 9.83325C3.106 9.83325 1.16683 7.89409 1.16683 5.49992C1.16683 3.10575 3.106 1.16659 5.50016 1.16659C7.89433 1.16659 9.8335 3.10575 9.8335 5.49992C9.8335 7.89409 7.89433 9.83325 5.50016 9.83325ZM5.381 2.79159H5.3485C5.13183 2.79159 4.9585 2.96492 4.9585 3.18159V5.73825C4.9585 5.92784 5.056 6.10659 5.22391 6.20409L7.47183 7.55284C7.656 7.66117 7.89433 7.607 8.00266 7.42284C8.02986 7.37898 8.04796 7.33009 8.05587 7.27909C8.06378 7.22809 8.06134 7.17602 8.0487 7.12599C8.03607 7.07595 8.01349 7.02896 7.98232 6.98784C7.95114 6.94671 7.91201 6.91227 7.86725 6.88659L5.771 5.64075V3.18159C5.771 2.96492 5.59766 2.79159 5.381 2.79159Z" fill="white"/>
</svg>
